<?xml version="1.0" encoding="UTF-8"?>
<svg version="1.1" viewBox="0 0 2048 471" width="1280" height="1280" xmlns="http://www.w3.org/2000/svg">
<path transform="translate(856,5)" d="m0 0h267l19 3 13 5 10 6 8 7 7 10 5 12 4 18 1 10v14l-3 20-5 15-6 10-9 10-13 8-11 4-19 3h-81l72 36 23 11 34 17 9 8 3 6v13l-5 10-9 6-3 1h-12l-23-11-33-17-54-28-37-19-19-10-39-20-12-7-5-5-4-8v-10l5-10 9-6 4-1 164-1 11-3 8-6 4-6 2-7v-18l-3-12-6-7-8-4-11-2h-221l-1 1-1 194-3 10-5 7-12 6-9 1-11-4-8-7-4-10-1-7v-208l2-11 3-6 5-5 6-4z" fill="#EE7123"/>
<path transform="translate(471,5)" d="m0 0h278l8 3 6 5 4 8v12l-4 8-7 6-5 2-263 1-10 3-5 5-3 6-1 5-1 39 2 3 3 1h235l8 3 5 5 4 6 1 3v10l-5 10-6 5-6 2-240 1v44l4 10 7 5 7 2 260 1 9 3 7 5 4 8 1 7-3 10-7 8-8 3h-283l-12-3-14-7-10-9-7-9-5-11-3-12v-155l4-15 6-12 9-10 8-6 10-5 11-3z" fill="#EE7123"/>
<path transform="translate(1286,5)" d="m0 0h266l16 2 15 5 11 6 9 8 9 14 5 15 3 21v14l-2 16-5 17-7 12-8 9-14 9-11 4-19 3h-82l53 26 24 12 23 11 32 16 7 7 3 7v12l-4 8-5 5-8 4h-12l-9-4-26-13-19-10-41-21-19-10-35-18-62-32-10-7-5-9v-11l5-10 5-4 8-3 162-1 11-2 8-5 4-5 4-11 1-6v-8l-2-9-5-10-8-6-7-2-7-1h-220l-2 1-1 194-3 10-5 7-12 6h-13l-10-5-6-7-3-8v-221l3-9 4-6 8-5z" fill="#EE7123"/>
<path transform="translate(1706)" d="m0 0h15l10 6 6 8 3 12v62l1 11 4 9 5 4 9 3h231l1-1 1-91 4-11 6-7 9-5h14l8 4 5 4 5 8v203l-7 16-7 9-7 7-14 8-16 4h-267l-10-5-6-9-1-3v-9l4-9 8-7 7-2 246-1 9-3 5-4 4-9v-40l-1-1-249-1-14-3-14-7-10-8-8-11-5-11-2-9-1-25v-46l1-22 4-8 8-7z" fill="#EE7123"/>
<path transform="translate(22)" d="m0 0h15l10 6 5 6 3 6 1 5v119l16-8 29-15 22-12 29-15 22-12 27-14 22-12 29-15 22-12 29-15 22-12h14l9 6 5 6 2 4 1 9-3 10-6 7-18 10-23 12-22 12-27 14-22 12-25 13-18 10 11 8 19 12 27 18 16 10 25 16 26 17 17 11 12 8 7 7 4 10-1 10-5 9-5 4-7 3h-11l-10-4-15-10-17-11-20-13-25-16-26-17-17-11-29-19-17-11-8-3-8 2-34 18-19 10-24 13-1 2-1 47-3 10-6 8-10 5-10 1-9-3-8-6-5-9-1-4v-227l5-10 9-8z" fill="#EE7123"/>
<path transform="translate(588,366)" d="m0 0h116l5 5 1 5-3 6-5 2-107 1-4 4v57l4 4h88l4-4v-19l-50-1-7-2-3-4v-7l5-5 4-1h56l9 2 6 5 3 9v22l-2 10-6 9-10 5h-106l-10-5-6-9-1-3-1-11v-47l1-11 5-10 9-6z" fill="#FEFEFE"/>
<path transform="translate(901,365)" d="m0 0 90 1 4 2 2 3v7l-4 5-3 1-101 1-5 2-3 5v8l2 5 4 2 81 1 15 2 8 5 6 7 3 11v12l-4 13-5 5-6 4-6 2h-112l-5-4-1-7 3-5 5-2 102-1 5-3 1-2v-12l-5-5-7-1-86-1-9-4-6-5-4-8-1-5v-16l4-11 5-6 8-4 5-1z" fill="#FEFEFE"/>
<path transform="translate(1760,365)" d="m0 0 91 1 5 5v8l-4 4-3 1-102 1-5 3-2 6 1 8 5 5 81 1 15 2 9 5 5 6 3 10v16l-3 9-4 6-8 5-6 2h-112l-5-4-1-6 3-5 6-3 101-1 6-4 1-2v-9l-2-6-11-2-86-1-9-4-5-5-4-6-2-9v-11l2-9 5-8 6-5 10-3z" fill="#FEFEFE"/>
<path transform="translate(387,366)" d="m0 0h101l9 3 5 4 4 7 2 12v52l-2 11-6 9-8 4-3 1h-104l-8-3-7-7-3-8-1-12v-42l1-13 4-9 5-5 6-3zm7 18-5 3-1 2v57l3 4 3 1h87l5-4 1-5v-49l-3-7-3-2z" fill="#FEFEFE"/>
<path transform="translate(1329,364)" d="m0 0h7l4 2 3 6 1 46 6-1 28-15 34-18 28-15 10-5h7l5 5 1 7-5 6-34 18-24 13 2 4 16 10 23 15 18 12 4 5-1 7-4 5h-10v-2l-5-2-25-16-21-14-13-9-2-1h-10l-18 10-8 5-2 4v13l-2 7-4 5h-11l-4-6-1-3v-89l3-6z" fill="#FEFEFE"/>
<path transform="translate(1528,365)" d="m0 0 9 1 4 5 1 4 1 71 2 3 3 1h86l4-3 1-4 1-71 5-6 2-1h7l5 4 2 5v73l-2 10-5 7-9 5-4 1h-100l-9-3-7-6-4-9v-80l3-5z" fill="#FEFEFE"/>
<path transform="translate(1047,366)" d="m0 0h130l5 5 1 6-3 5-4 2-50 1-1 1-1 74-3 8-2 3h-13l-5-7-1-4-1-74-1-1-50-1-5-3-1-2v-8z" fill="#FEFEFE"/>
<path transform="translate(197,364)" d="m0 0h8l5 3 2 3 1 7 1 68 4 4 92 1 7 3 2 4v6l-4 5-2 1h-106l-10-5-6-8-2-8v-75l4-7z" fill="#FEFEFE"/>
<path transform="translate(779,364)" d="m0 0h9l6 5 1 2v93l-6 7h-12l-5-8-1-3v-85l3-7z" fill="#FEFEFE"/>
<path transform="translate(1242,364)" d="m0 0h9l6 5 1 3v91l-4 6-2 2h-11l-5-6-1-2v-90l3-6z" fill="#FEFEFE"/>
</svg>
